# xmcd
#
# Track frame offsets: 
#        150
#        13068
#        26623
#        38034
#        51005
#        64755
#        79163
#        95034
#
# Disc length: 1477 seconds
#
# Revision: 0
# Processed by: cddbd v1.5.2PL0 Copyright (c) Steve Scherf et al.
# Submitted via: ExactAudioCopy v0.99pb5
#
DISCID=6005c308
DTITLE=Willie Nelson - the Essential
DYEAR=2009
DGENRE=Country
TTITLE0=Remember Me
TTITLE1=I love you a thousand ways
TTITLE2=Love me tender
TTITLE3=Midnight rider
TTITLE4=Philadelphia lawyer
TTITLE5=Why do I have to choose
TTITLE6=Let it be me
TTITLE7=Still is still moving to me
EXTD=
EXTT0=
EXTT1=
EXTT2=
EXTT3=
EXTT4=
EXTT5=
EXTT6=
EXTT7=
PLAYORDER=
